# xmcd CD database file
#
# Track frame offsets:
#	150
#	27035
#	41325
#	62052
#	81410
#	95477
#	113075
#	129002
#	144860
#
# Disc length: 2127 seconds
#
# Revision: 0
# Processed by: cddbd v1.4PL0 Copyright (c) Steve Scherf et al.
# Submitted via: CDex 1.50
#
DISCID=67084d09
DTITLE=Buddy Emmons - One For the Road
DYEAR=1900
DGENRE=Country
TTITLE0=Linus and Lucy Melody
TTITLE1=Bitter They Are
TTITLE2=Plus Nine (minus three)
TTITLE3=Plus Nine
TTITLE4=Take Me Out To The Ballgame
TTITLE5=Every Time You Touch Me
TTITLE6=Blues At The Factory
TTITLE7=Aura Lee
TTITLE8=Oleo
EXTD=
EXTT0=
EXTT1=
EXTT2=
EXTT3=
EXTT4=
EXTT5=
EXTT6=
EXTT7=
EXTT8=
PLAYORDER=
